<svg width="511" height="445" viewBox="0 0 511 445" fill="none" xmlns="http://www.w3.org/2000/svg">
<g id="loader">
<g id="Group 5">
<path id="Vector" d="M460.934 353.468H491.659C502.326 353.468 511.001 344.794 511.001 334.127C511.001 323.465 502.326 314.79 491.659 314.79H329.013C324.88 314.79 321.528 318.143 321.528 322.276C321.528 326.408 324.88 329.761 329.013 329.761H491.659C494.069 329.761 496.03 331.718 496.03 334.127C496.03 336.537 494.069 338.498 491.659 338.498H225.961C217.836 338.498 210.432 334.03 206.643 326.837C202.857 319.648 203.356 311.02 207.945 304.319L218.799 288.471L230.335 287.094L215.15 309.258C212.355 313.344 212.066 318.393 214.37 322.767C216.682 327.145 221.017 329.761 225.961 329.761H299.072C303.208 329.761 306.557 326.408 306.557 322.276C306.557 318.143 303.208 314.79 299.072 314.79H229.508L246.935 289.36C247.906 287.944 248.666 286.424 249.224 284.841L418.806 264.592L451.032 260.751C475.313 257.843 493.62 237.215 493.62 212.771V185.2C493.62 181.068 490.268 177.715 486.135 177.715C482.003 177.715 478.65 181.068 478.65 185.2V188.822L387.629 194.841L383.878 150.744L478.65 150.175V155.142C478.65 159.274 482.003 162.627 486.135 162.627C490.268 162.627 493.62 159.274 493.62 155.142V142.69C493.62 142.658 493.624 142.631 493.624 142.6C493.624 142.576 493.62 142.553 493.62 142.53V101.485C493.62 90.756 485.231 81.91 474.521 81.3447L256.635 69.8048C256.545 69.8009 256.456 69.7931 256.366 69.7931L148.023 64.0543L146.339 56.4754C143.645 44.3351 134 35.0408 121.77 32.7991L97.6649 28.382L98.7799 22.0584C99.1893 19.727 98.6707 17.3762 97.314 15.4425C95.9573 13.5048 93.9261 12.2144 91.5986 11.8011L26.6593 0.350891C20.6866 -0.701736 14.6594 0.631592 9.68863 4.11306C4.71789 7.59453 1.40016 12.7992 0.347532 18.7758C-1.8279 31.111 6.43718 42.9121 18.7724 45.0876L83.7117 56.5378C84.2303 56.6275 84.7449 56.6743 85.2517 56.6743C89.4622 56.6743 93.2049 53.6489 93.9651 49.3604L95.0645 43.1227L119.072 47.5203C125.372 48.6743 130.339 53.4618 131.727 59.7152L173.411 247.598C173.411 247.601 173.415 247.609 173.415 247.613L179.824 276.502C181.711 285.005 189.173 290.861 197.672 290.861C198.132 290.861 198.592 290.837 199.056 290.802L195.594 295.859C187.856 307.157 187.013 321.702 193.399 333.815C199.789 345.936 212.265 353.465 225.961 353.465H234.37V357.375C213.633 360.942 197.801 379.043 197.801 400.782C197.801 425.074 217.563 444.837 241.855 444.837C266.144 444.837 285.91 425.074 285.91 400.782C285.91 389.928 281.925 379.5 274.693 371.418C271.937 368.338 267.208 368.073 264.124 370.829C261.044 373.585 260.779 378.318 263.539 381.398C268.311 386.731 270.939 393.616 270.939 400.782C270.939 416.821 257.89 429.866 241.855 429.866C225.82 429.866 212.772 416.821 212.772 400.782C212.772 387.332 221.949 375.991 234.37 372.681V381.11C226.44 384.135 220.783 391.804 220.783 400.782C220.783 412.404 230.234 421.858 241.855 421.858C253.477 421.858 262.927 412.404 262.927 400.782C262.927 391.804 257.271 384.139 249.341 381.11V353.468H445.964V357.379C425.227 360.942 409.395 379.043 409.395 400.782C409.395 425.074 429.157 444.84 453.449 444.84C477.741 444.84 497.504 425.074 497.504 400.782C497.504 389.928 493.523 379.5 486.291 371.418C483.535 368.338 478.802 368.077 475.722 370.833C472.642 373.589 472.377 378.318 475.133 381.402C479.905 386.735 482.537 393.616 482.537 400.782C482.537 416.821 469.488 429.87 453.453 429.87C437.414 429.87 424.365 416.821 424.365 400.782C424.365 387.336 433.547 375.991 445.968 372.681V381.11C438.034 384.135 432.377 391.804 432.377 400.782C432.377 412.404 441.831 421.858 453.453 421.858C465.071 421.858 474.525 412.404 474.525 400.782C474.525 391.804 468.868 384.139 460.938 381.11V353.468H460.934ZM21.3728 30.343C17.1662 29.6022 14.3514 25.5789 15.0921 21.3762C15.4508 19.3372 16.5814 17.5633 18.2734 16.3742C19.5911 15.4541 21.1233 14.9746 22.6983 14.9746C23.1506 14.9746 23.6067 15.0136 24.0589 15.0955L82.971 25.4814L80.281 40.7328L21.3728 30.343ZM293.161 264.518L285.621 216.584L373.956 210.744L377.672 254.428L293.161 264.518ZM478.65 203.828V212.767C478.65 229.64 466.01 243.878 449.258 245.882L392.545 252.654L388.896 209.757L478.65 203.828ZM372.685 195.828L283.286 201.734L275.364 151.391L368.861 150.834L372.685 195.828ZM167.544 152.038L260.226 151.481L268.288 202.728L180.082 208.557L167.544 152.038ZM363.726 90.4675L367.59 135.867L273.013 136.432L264.959 85.2355L363.726 90.4675ZM478.65 101.481V135.204L382.607 135.777L378.822 91.2667L473.73 96.292C476.49 96.4402 478.65 98.717 478.65 101.481ZM249.676 84.4285L257.875 136.526L164.226 137.087L151.392 79.2239L249.676 84.4285ZM194.436 273.258L183.364 223.344L270.623 217.574L278.288 266.291L242.011 270.623C241.988 270.627 241.965 270.627 241.945 270.627L213.653 274.007C213.637 274.007 213.622 274.011 213.606 274.015L198.113 275.863C196.394 276.065 194.815 274.95 194.436 273.258ZM241.851 406.887C238.487 406.887 235.75 404.147 235.75 400.782C235.75 397.418 238.487 394.681 241.851 394.681C245.22 394.681 247.957 397.418 247.957 400.782C247.957 404.147 245.216 406.887 241.851 406.887ZM453.449 406.887C450.085 406.887 447.344 404.147 447.344 400.782C447.344 397.418 450.085 394.681 453.449 394.681C456.814 394.681 459.55 397.418 459.55 400.782C459.55 404.147 456.814 406.887 453.449 406.887Z" fill="black"/>
<!-- <g id="wheel1">
<path id="Ellipse 1" d="M281 402C281 422.775 263.308 440 241 440C218.692 440 201 422.775 201 402C201 381.225 218.692 364 241 364C263.308 364 281 381.225 281 402Z" fill="#C4C4C4" stroke="black" stroke-width="10"/>
<circle id="Ellipse 2" cx="241" cy="402" r="11" fill="black"/>
<line id="Line 1" x1="230.702" y1="396.705" x2="205.702" y2="384.705" stroke="black" stroke-width="6"/>
<line id="Line 2" x1="268.429" y1="381.33" x2="246.889" y2="398.796" stroke="black" stroke-width="6"/>
<line id="Line 3" x1="243.095" y1="440.73" x2="238.036" y2="408.465" stroke="black" stroke-width="6"/>
</g> -->
<!-- <g id="wheel1_2">
<path id="Ellipse 1_2" d="M494 402C494 422.775 476.308 440 454 440C431.692 440 414 422.775 414 402C414 381.225 431.692 364 454 364C476.308 364 494 381.225 494 402Z" fill="#C4C4C4" stroke="black" stroke-width="10"/>
<circle id="Ellipse 2_2" cx="454" cy="402" r="11" fill="black"/>
<line id="Line 1_2" x1="443.702" y1="396.705" x2="418.702" y2="384.705" stroke="black" stroke-width="6"/>
<line id="Line 2_2" x1="481.429" y1="381.33" x2="459.889" y2="398.796" stroke="black" stroke-width="6"/>
<line id="Line 3_2" x1="456.095" y1="440.73" x2="451.036" y2="408.465" stroke="black" stroke-width="6"/>
</g> -->
</g>
</g>
</svg>
