<svg width="138" height="80" viewBox="0 0 138 80" fill="none" xmlns="http://www.w3.org/2000/svg">
<rect x="74" y="53" width="31" height="3" rx="1.5" fill="black"/>
<path d="M18.592 45.832H23.968V49H14.488V32.152H18.592V45.832ZM36.4135 46.024H30.1255L29.1175 49H24.8215L30.9175 32.152H35.6695L41.7655 49H37.4215L36.4135 46.024ZM35.3575 42.856L33.2695 36.688L31.2055 42.856H35.3575Z" fill="black"/>
<ellipse cx="89.5" cy="41.5" rx="24.5" ry="23.5" fill="#5C2E2E" fill-opacity="0.33"/>
<path d="M76.568 32.152V49H72.464V38.896L68.696 49H65.384L61.592 38.872V49H57.488V32.152H62.336L67.064 43.816L71.744 32.152H76.568ZM87.4873 49.168C85.9033 49.168 84.4473 48.8 83.1193 48.064C81.8073 47.328 80.7593 46.304 79.9753 44.992C79.2072 43.664 78.8232 42.176 78.8232 40.528C78.8232 38.88 79.2072 37.4 79.9753 36.088C80.7593 34.776 81.8073 33.752 83.1193 33.016C84.4473 32.28 85.9033 31.912 87.4873 31.912C89.0713 31.912 90.5193 32.28 91.8313 33.016C93.1593 33.752 94.1993 34.776 94.9513 36.088C95.7193 37.4 96.1033 38.88 96.1033 40.528C96.1033 42.176 95.7193 43.664 94.9513 44.992C94.1833 46.304 93.1433 47.328 91.8313 48.064C90.5193 48.8 89.0713 49.168 87.4873 49.168ZM87.4873 45.424C88.8313 45.424 89.9033 44.976 90.7032 44.08C91.5193 43.184 91.9273 42 91.9273 40.528C91.9273 39.04 91.5193 37.856 90.7032 36.976C89.9033 36.08 88.8313 35.632 87.4873 35.632C86.1273 35.632 85.0393 36.072 84.2233 36.952C83.4233 37.832 83.0233 39.024 83.0233 40.528C83.0233 42.016 83.4233 43.208 84.2233 44.104C85.0393 44.984 86.1273 45.424 87.4873 45.424ZM106.978 49L103.474 42.64H102.49V49H98.3864V32.152H105.274C106.602 32.152 107.73 32.384 108.658 32.848C109.602 33.312 110.306 33.952 110.77 34.768C111.234 35.568 111.466 36.464 111.466 37.456C111.466 38.576 111.146 39.576 110.506 40.456C109.882 41.336 108.954 41.96 107.722 42.328L111.61 49H106.978ZM102.49 39.736H105.034C105.786 39.736 106.346 39.552 106.714 39.184C107.098 38.816 107.29 38.296 107.29 37.624C107.29 36.984 107.098 36.48 106.714 36.112C106.346 35.744 105.786 35.56 105.034 35.56H102.49V39.736ZM118.147 35.44V38.848H123.643V42.016H118.147V45.712H124.363V49H114.043V32.152H124.363V35.44H118.147Z" fill="black"/>
</svg>
