<svg width="50" height="10" viewBox="0 0 50 45" fill="none" xmlns="http://www.w3.org/2000/svg">
<path d="M29.7188 44H26.8359L7.21875 14.7969V44H4.3125V9.875H7.21875L26.8594 39.1016V9.875H29.7188V44Z" fill="#FF6964"/>
<path d="M29.7188 44V45H30.7188V44H29.7188ZM26.8359 44L26.0058 44.5576L26.303 45H26.8359V44ZM7.21875 14.7969L8.04885 14.2393L6.21875 11.5149V14.7969H7.21875ZM7.21875 44V45H8.21875V44H7.21875ZM4.3125 44H3.3125V45H4.3125V44ZM4.3125 9.875V8.875H3.3125V9.875H4.3125ZM7.21875 9.875L8.04875 9.31723L7.75156 8.875H7.21875V9.875ZM26.8594 39.1016L26.0294 39.6593L27.8594 42.3825V39.1016H26.8594ZM26.8594 9.875V8.875H25.8594V9.875H26.8594ZM29.7188 9.875H30.7188V8.875H29.7188V9.875ZM29.7188 43H26.8359V45H29.7188V43ZM27.666 43.4424L8.04885 14.2393L6.38865 15.3545L26.0058 44.5576L27.666 43.4424ZM6.21875 14.7969V44H8.21875V14.7969H6.21875ZM7.21875 43H4.3125V45H7.21875V43ZM5.3125 44V9.875H3.3125V44H5.3125ZM4.3125 10.875H7.21875V8.875H4.3125V10.875ZM6.38875 10.4328L26.0294 39.6593L27.6894 38.5438L8.04875 9.31723L6.38875 10.4328ZM27.8594 39.1016V9.875H25.8594V39.1016H27.8594ZM26.8594 10.875H29.7188V8.875H26.8594V10.875ZM28.7188 9.875V44H30.7188V9.875H28.7188Z" fill="#FF6964"/>
<line y1="-2" x2="36.1692" y2="-2" transform="matrix(0.999846 0.0175512 -0.0374277 0.999299 0 21.5)" stroke="#FF6964" stroke-width="4"/>
<line y1="-2" x2="36.1692" y2="-2" transform="matrix(0.999846 0.0175512 -0.0374277 0.999299 0 29.5625)" stroke="#FF6964" stroke-width="4"/>
</svg>
